<svg version="1.1" id="Layer_1" xmlns="http://www.w3.org/2000/svg" xmlns:xlink="http://www.w3.org/1999/xlink" x="0px" y="0px" width="196px" height="134px" viewBox="0 0 196 134" enable-background="new 0 0 196 134" xml:space="preserve">
<linearGradient id="SVGID_1_" gradientUnits="userSpaceOnUse" x1="-5.2861" y1="81.7949" x2="201.1702" y2="31.6182">
	<stop  offset="0.0587" style="stop-color:#92278F"/>
	<stop  offset="0.1844" style="stop-color:#662D91"/>
	<stop  offset="0.4274" style="stop-color:#461757"/>
	<stop  offset="0.5217" style="stop-color:#481859"/>
	<stop  offset="0.606" style="stop-color:#4C1B5F"/>
	<stop  offset="0.6864" style="stop-color:#531F6A"/>
	<stop  offset="0.764" style="stop-color:#5B257A"/>
	<stop  offset="0.838" style="stop-color:#662D91"/>
	<stop  offset="1" style="stop-color:#92278F"/>
</linearGradient>
<path fill="url(#SVGID_1_)" d="M76.516,0.751c0,0-7.359-0.669-21.911,10.035c-10.872,3.513-13.882,3.68-17.395,10.036
	c0,0-24.787,19.025-30.065,29.124C1.866,60.044-7.545,77.718,13.8,95.161c42.845,26.215,92.12-40.412,160.287-46.149
	c5.508,13.082,5.693,19.511-1.568,36.063c0,0-25.14,2.74-49.468-42.245C102.88,5.534,62.688,19.19,62.688,19.19
	s30.755-2.066,59.216,51.641c20.197,37.642,49.321,31.753,58.067,26.395c9.793-5.999,27.232-37.061,4.132-56.231
	C162.319,22.918,94.82,63.028,94.82,63.028S49.834,96.079,26.424,74.963C3.013,53.847,41.572,35.256,41.572,35.256
	s20.427-3.672,24.788,0.918c2.525,1.606,12.165-8.033,12.165-8.033l-8.033-0.688l1.377-2.984c0,0-4.361,4.361-6.885,3.672
	c-2.525-0.688,4.361-3.672,4.361-3.672l-9.64,1.836l-7.574-1.606c0,0,17.673-18.82,19.738-17.673
	c2.066,1.147-2.065,8.492-2.065,8.492s8.033-5.279,5.049-9.64C77.147,3.583,76.516,0.751,76.516,0.751z"/>
<g>
	<path fill="#262262" d="M15.376,132.749c0,0.084-0.026,0.158-0.078,0.223c-0.053,0.063-0.145,0.113-0.275,0.15
		s-0.305,0.068-0.521,0.096c-0.216,0.025-0.487,0.039-0.814,0.039c-0.314,0-0.583-0.014-0.806-0.039
		c-0.223-0.027-0.399-0.059-0.53-0.096s-0.223-0.088-0.274-0.15c-0.053-0.064-0.078-0.139-0.078-0.223v-19.732
		c0-0.086,0.029-0.16,0.088-0.223c0.059-0.064,0.157-0.113,0.295-0.152c0.137-0.035,0.313-0.068,0.53-0.094
		c0.216-0.027,0.474-0.041,0.775-0.041c0.327,0,0.599,0.014,0.814,0.041c0.216,0.025,0.39,0.059,0.521,0.094
		c0.131,0.039,0.223,0.088,0.275,0.152c0.052,0.063,0.078,0.137,0.078,0.223V132.749z"/>
	<path fill="#262262" d="M43.347,132.034c0,0.211-0.044,0.391-0.132,0.539s-0.203,0.271-0.346,0.365
		c-0.142,0.096-0.301,0.166-0.477,0.207c-0.177,0.043-0.353,0.064-0.528,0.064h-1.117c-0.352,0-0.66-0.029-0.924-0.088
		c-0.265-0.059-0.515-0.164-0.751-0.318c-0.237-0.152-0.475-0.361-0.711-0.627c-0.237-0.266-0.489-0.604-0.755-1.018l-7.751-11.693
		c-0.405-0.604-0.814-1.236-1.226-1.898c-0.412-0.662-0.795-1.305-1.149-1.93h-0.039c0.025,0.762,0.045,1.541,0.059,2.336
		c0.013,0.793,0.02,1.582,0.02,2.367v12.408c0,0.074-0.027,0.145-0.083,0.215c-0.055,0.068-0.148,0.121-0.279,0.158
		c-0.132,0.037-0.304,0.068-0.519,0.096c-0.214,0.025-0.487,0.039-0.818,0.039s-0.604-0.014-0.818-0.039
		c-0.214-0.027-0.384-0.059-0.508-0.096s-0.214-0.09-0.27-0.158c-0.055-0.07-0.082-0.141-0.082-0.215v-18.971
		c0-0.424,0.148-0.725,0.445-0.906c0.298-0.18,0.622-0.27,0.973-0.27h1.662c0.392,0,0.72,0.027,0.983,0.08s0.5,0.141,0.709,0.262
		s0.412,0.291,0.608,0.508c0.195,0.219,0.401,0.49,0.616,0.818l5.959,9.025c0.367,0.551,0.722,1.088,1.063,1.611
		c0.341,0.525,0.67,1.041,0.986,1.549c0.316,0.51,0.63,1.01,0.939,1.502s0.617,0.988,0.921,1.486h0.02
		c-0.026-0.838-0.043-1.709-0.049-2.613c-0.007-0.906-0.011-1.777-0.011-2.615v-11.152c0-0.074,0.028-0.143,0.083-0.207
		c0.056-0.063,0.148-0.119,0.28-0.166c0.131-0.049,0.304-0.082,0.518-0.104c0.215-0.021,0.494-0.031,0.84-0.031
		c0.304,0,0.565,0.01,0.787,0.031c0.221,0.021,0.394,0.055,0.518,0.104c0.125,0.047,0.215,0.104,0.27,0.166
		c0.056,0.064,0.083,0.133,0.083,0.207V132.034z"/>
	<path fill="#262262" d="M65.465,113.778c0,0.201-0.014,0.377-0.039,0.525c-0.026,0.148-0.072,0.268-0.138,0.357
		s-0.141,0.156-0.226,0.197c-0.086,0.043-0.174,0.064-0.266,0.064H55.49v6.99h8.797c0.092,0,0.181,0.02,0.266,0.055
		c0.085,0.039,0.16,0.1,0.226,0.184s0.111,0.199,0.138,0.342s0.039,0.326,0.039,0.549c0,0.201-0.013,0.373-0.039,0.516
		s-0.072,0.26-0.138,0.35s-0.141,0.158-0.226,0.207c-0.085,0.047-0.174,0.07-0.266,0.07H55.49v8.564
		c0,0.074-0.026,0.145-0.078,0.215c-0.053,0.068-0.145,0.121-0.275,0.158s-0.301,0.068-0.511,0.096
		c-0.209,0.025-0.484,0.039-0.824,0.039c-0.314,0-0.583-0.014-0.806-0.039c-0.223-0.027-0.399-0.059-0.53-0.096
		s-0.223-0.09-0.274-0.158c-0.053-0.07-0.078-0.141-0.078-0.215v-19.033c0-0.414,0.134-0.703,0.402-0.867
		c0.268-0.164,0.553-0.246,0.854-0.246h11.429c0.092,0,0.18,0.021,0.266,0.064c0.085,0.041,0.16,0.111,0.226,0.205
		c0.065,0.096,0.111,0.221,0.138,0.375C65.452,113.399,65.465,113.577,65.465,113.778z"/>
	<path fill="#262262" d="M75.979,132.749c0,0.084-0.026,0.158-0.078,0.223c-0.053,0.063-0.145,0.113-0.275,0.15
		s-0.305,0.068-0.521,0.096c-0.216,0.025-0.487,0.039-0.814,0.039c-0.314,0-0.583-0.014-0.806-0.039
		c-0.223-0.027-0.399-0.059-0.53-0.096s-0.223-0.088-0.274-0.15c-0.053-0.064-0.078-0.139-0.078-0.223v-19.732
		c0-0.086,0.029-0.16,0.088-0.223c0.059-0.064,0.157-0.113,0.295-0.152c0.137-0.035,0.313-0.068,0.53-0.094
		c0.216-0.027,0.474-0.041,0.775-0.041c0.327,0,0.599,0.014,0.814,0.041c0.216,0.025,0.39,0.059,0.521,0.094
		c0.131,0.039,0.223,0.088,0.275,0.152c0.052,0.063,0.078,0.137,0.078,0.223V132.749z"/>
	<path fill="#262262" d="M103.949,132.034c0,0.211-0.044,0.391-0.132,0.539s-0.203,0.271-0.346,0.365
		c-0.142,0.096-0.301,0.166-0.477,0.207c-0.177,0.043-0.353,0.064-0.528,0.064h-1.117c-0.352,0-0.66-0.029-0.924-0.088
		c-0.265-0.059-0.515-0.164-0.751-0.318c-0.237-0.152-0.475-0.361-0.711-0.627c-0.237-0.266-0.489-0.604-0.755-1.018l-7.751-11.693
		c-0.405-0.604-0.814-1.236-1.226-1.898c-0.412-0.662-0.795-1.305-1.149-1.93h-0.039c0.025,0.762,0.045,1.541,0.059,2.336
		c0.013,0.793,0.02,1.582,0.02,2.367v12.408c0,0.074-0.027,0.145-0.083,0.215c-0.055,0.068-0.148,0.121-0.279,0.158
		c-0.132,0.037-0.304,0.068-0.518,0.096c-0.214,0.025-0.487,0.039-0.818,0.039s-0.604-0.014-0.818-0.039
		c-0.214-0.027-0.384-0.059-0.508-0.096s-0.214-0.09-0.27-0.158c-0.055-0.07-0.082-0.141-0.082-0.215v-18.971
		c0-0.424,0.148-0.725,0.445-0.906c0.298-0.18,0.622-0.27,0.973-0.27h1.662c0.392,0,0.72,0.027,0.983,0.08s0.5,0.141,0.709,0.262
		s0.412,0.291,0.608,0.508c0.195,0.219,0.401,0.49,0.616,0.818l5.959,9.025c0.367,0.551,0.722,1.088,1.063,1.611
		c0.341,0.525,0.67,1.041,0.986,1.549c0.316,0.51,0.63,1.01,0.939,1.502s0.617,0.988,0.921,1.486h0.02
		c-0.026-0.838-0.043-1.709-0.049-2.613c-0.007-0.906-0.011-1.777-0.011-2.615v-11.152c0-0.074,0.028-0.143,0.083-0.207
		c0.056-0.063,0.148-0.119,0.28-0.166c0.131-0.049,0.304-0.082,0.518-0.104c0.215-0.021,0.494-0.031,0.84-0.031
		c0.304,0,0.565,0.01,0.787,0.031c0.221,0.021,0.394,0.055,0.518,0.104c0.125,0.047,0.215,0.104,0.27,0.166
		c0.056,0.064,0.083,0.133,0.083,0.207V132.034z"/>
	<path fill="#262262" d="M116.092,132.749c0,0.084-0.026,0.158-0.078,0.223c-0.053,0.063-0.145,0.113-0.275,0.15
		s-0.305,0.068-0.521,0.096c-0.216,0.025-0.487,0.039-0.814,0.039c-0.314,0-0.583-0.014-0.806-0.039
		c-0.223-0.027-0.399-0.059-0.53-0.096s-0.223-0.088-0.274-0.15c-0.053-0.064-0.078-0.139-0.078-0.223v-19.732
		c0-0.086,0.029-0.16,0.088-0.223c0.059-0.064,0.157-0.113,0.295-0.152c0.137-0.035,0.313-0.068,0.53-0.094
		c0.216-0.027,0.474-0.041,0.775-0.041c0.327,0,0.599,0.014,0.814,0.041c0.216,0.025,0.39,0.059,0.521,0.094
		c0.131,0.039,0.223,0.088,0.275,0.152c0.052,0.063,0.078,0.137,0.078,0.223V132.749z"/>
	<path fill="#262262" d="M140.783,113.778c0,0.201-0.013,0.377-0.039,0.525s-0.069,0.268-0.128,0.357s-0.131,0.156-0.216,0.197
		c-0.085,0.043-0.18,0.064-0.285,0.064h-7.147v17.826c0,0.084-0.026,0.158-0.078,0.223c-0.053,0.063-0.145,0.113-0.275,0.15
		s-0.305,0.068-0.521,0.096c-0.216,0.025-0.487,0.039-0.814,0.039c-0.314,0-0.583-0.014-0.806-0.039
		c-0.223-0.027-0.399-0.059-0.53-0.096s-0.223-0.088-0.274-0.15c-0.053-0.064-0.078-0.139-0.078-0.223v-17.826h-7.148
		c-0.104,0-0.199-0.021-0.284-0.064c-0.086-0.041-0.154-0.107-0.206-0.197c-0.053-0.09-0.096-0.209-0.128-0.357
		c-0.033-0.148-0.049-0.324-0.049-0.525s0.016-0.379,0.049-0.531c0.032-0.154,0.075-0.279,0.128-0.375
		c0.052-0.094,0.12-0.164,0.206-0.205c0.085-0.043,0.18-0.064,0.284-0.064h17.673c0.105,0,0.2,0.021,0.285,0.064
		c0.085,0.041,0.157,0.111,0.216,0.205c0.059,0.096,0.102,0.221,0.128,0.375C140.771,113.399,140.783,113.577,140.783,113.778z"/>
	<path fill="#662D91" d="M154.557,125.171v7.578c0,0.084-0.026,0.158-0.078,0.223c-0.053,0.063-0.144,0.113-0.273,0.15
		s-0.306,0.068-0.527,0.096c-0.221,0.025-0.487,0.039-0.8,0.039c-0.326,0-0.596-0.014-0.811-0.039
		c-0.215-0.027-0.391-0.059-0.527-0.096s-0.23-0.088-0.283-0.15c-0.052-0.064-0.078-0.139-0.078-0.223v-7.578l-7.187-11.6
		c-0.145-0.242-0.232-0.434-0.265-0.57c-0.033-0.139,0-0.244,0.098-0.318c0.099-0.074,0.275-0.121,0.53-0.143
		s0.599-0.033,1.031-0.033c0.393,0,0.71,0.012,0.952,0.033s0.435,0.049,0.579,0.086c0.144,0.037,0.252,0.09,0.324,0.16
		c0.071,0.068,0.141,0.156,0.206,0.262l3.515,5.91c0.326,0.561,0.652,1.148,0.978,1.764c0.325,0.613,0.657,1.234,0.996,1.859h0.039
		c0.299-0.604,0.607-1.205,0.927-1.805c0.319-0.598,0.642-1.188,0.969-1.771l3.534-5.941c0.039-0.105,0.095-0.195,0.167-0.27
		s0.17-0.131,0.295-0.168c0.124-0.037,0.297-0.064,0.521-0.086c0.222-0.021,0.503-0.033,0.844-0.033
		c0.472,0,0.841,0.014,1.109,0.041c0.269,0.025,0.455,0.076,0.56,0.15s0.141,0.18,0.108,0.318c-0.033,0.137-0.121,0.322-0.266,0.555
		L154.557,125.171z"/>
	<path fill="#662D91" d="M183.999,113.778c0,0.201-0.013,0.377-0.039,0.525s-0.069,0.268-0.128,0.357s-0.131,0.156-0.216,0.197
		c-0.085,0.043-0.18,0.064-0.285,0.064h-7.147v17.826c0,0.084-0.026,0.158-0.078,0.223c-0.053,0.063-0.145,0.113-0.275,0.15
		s-0.305,0.068-0.521,0.096c-0.216,0.025-0.487,0.039-0.814,0.039c-0.314,0-0.583-0.014-0.806-0.039
		c-0.223-0.027-0.399-0.059-0.53-0.096s-0.223-0.088-0.274-0.15c-0.053-0.064-0.078-0.139-0.078-0.223v-17.826h-7.148
		c-0.104,0-0.199-0.021-0.284-0.064c-0.086-0.041-0.154-0.107-0.206-0.197c-0.053-0.09-0.096-0.209-0.128-0.357
		c-0.033-0.148-0.049-0.324-0.049-0.525s0.016-0.379,0.049-0.531c0.032-0.154,0.075-0.279,0.128-0.375
		c0.052-0.094,0.12-0.164,0.206-0.205c0.085-0.043,0.18-0.064,0.284-0.064h17.673c0.105,0,0.2,0.021,0.285,0.064
		c0.085,0.041,0.157,0.111,0.216,0.205c0.059,0.096,0.102,0.221,0.128,0.375C183.986,113.399,183.999,113.577,183.999,113.778z"/>
</g>
</svg>