<svg version="1.1" xmlns="http://www.w3.org/2000/svg" xmlns:xlink="http://www.w3.org/1999/xlink" x="0px" y="0px" width="196px" height="101px" viewBox="0 0 196 101" enable-background="new 0 0 196 101" xml:space="preserve">
<linearGradient id="SVGID_1_" gradientUnits="userSpaceOnUse" x1="239.7139" y1="-271.3008" x2="446.168" y2="-221.1246" gradientTransform="matrix(1 0 0 -1 -245 -190)">
	<stop  offset="0.0587" style="stop-color:#922A8E"/>
	<stop  offset="0.1844" style="stop-color:#673090"/>
	<stop  offset="0.4274" style="stop-color:#461E57"/>
	<stop  offset="0.5217" style="stop-color:#471F5A"/>
	<stop  offset="0.606" style="stop-color:#4C225F"/>
	<stop  offset="0.6864" style="stop-color:#53276B"/>
	<stop  offset="0.764" style="stop-color:#5C2B7A"/>
	<stop  offset="0.838" style="stop-color:#673090"/>
	<stop  offset="1" style="stop-color:#922A8E"/>
</linearGradient>
<path fill="url(#SVGID_1_)" d="M76.516,0.257c0,0-7.359-0.669-21.911,10.035c-10.872,3.513-13.882,3.68-17.395,10.036
	c0,0-24.787,19.025-30.065,29.124C1.866,59.55-7.545,77.224,13.8,94.667c42.845,26.215,92.119-40.412,160.287-46.149
	c5.508,13.082,5.691,19.511-1.568,36.063c0,0-25.141,2.739-49.469-42.245c-20.17-37.296-60.362-23.64-60.362-23.64
	s30.755-2.066,59.215,51.641c20.197,37.642,49.32,31.753,58.066,26.396c9.793-6,27.232-37.062,4.133-56.231
	C162.317,22.424,94.82,62.533,94.82,62.533S49.834,95.585,26.424,74.469C3.013,53.353,41.572,34.762,41.572,34.762
	S61.999,31.09,66.36,35.68c2.525,1.606,12.165-8.033,12.165-8.033l-8.033-0.688l1.377-2.984c0,0-4.361,4.361-6.885,3.672
	c-2.525-0.688,4.361-3.672,4.361-3.672l-9.64,1.836l-7.574-1.606c0,0,17.673-18.82,19.738-17.673
	c2.066,1.147-2.065,8.492-2.065,8.492s8.033-5.279,5.049-9.64C77.147,3.089,76.516,0.257,76.516,0.257z"/>
</svg>